<svg width="522" height="88" viewBox="0 0 522 88" fill="none" xmlns="http://www.w3.org/2000/svg">
<path fill-rule="evenodd" clip-rule="evenodd" d="M62.3126 0.963996C62.3908 1.03581 62.4652 1.11026 62.5357 1.18708L99.0243 40.1442C99.6514 40.8138 100 41.6938 100 42.6076V73.2405C100 81.3665 93.3089 88 85.1124 88H62.6404C58.1649 88 54.1382 86.0222 51.4045 82.9036C48.6709 86.0222 44.6441 88 40.1685 88H14.8876C6.6911 88 0 81.3665 0 73.2405V39.8228C0 38.9665 0.306139 38.138 0.864039 37.4843L31.7629 1.28178C32.4704 0.452898 33.5157 -0.0174189 34.6108 0.000496346C35.7059 0.0184113 36.735 0.522666 37.4145 1.37424C42.0047 7.12693 50.6369 7.61589 55.901 2.39706L57.2493 1.06035C58.6369 -0.315221 60.8729 -0.357773 62.3126 0.963996ZM75.4415 80.7595H85.1124C89.2754 80.7595 92.6966 77.3677 92.6966 73.2405V44.0293L59.9405 9.05704L29.7753 43.9468V73.2405C29.7753 75.9826 29.0133 78.5548 27.6887 80.7595H40.1685C44.3316 80.7595 47.7528 77.3676 47.7528 73.2405V64.886C47.7528 56.7601 54.4439 50.1266 62.6405 50.1266C70.837 50.1266 77.5281 56.7601 77.5281 64.886V73.2405C77.5281 75.9826 76.7661 78.5548 75.4415 80.7595ZM22.4719 73.2405C22.4719 77.3676 19.0507 80.7595 14.8876 80.7595C10.7246 80.7595 7.30337 77.3676 7.30337 73.2405V41.1489L34.7744 8.96257C38.2264 11.7256 42.4393 13.168 46.6914 13.2555L23.351 40.2515C22.7837 40.9077 22.4719 41.7434 22.4719 42.6076V73.2405ZM55.0562 64.886C55.0562 60.7589 58.4775 57.3671 62.6405 57.3671C66.8035 57.3671 70.2247 60.7589 70.2247 64.886V73.2405C70.2247 77.3676 66.8035 80.7595 62.6405 80.7595C58.4775 80.7595 55.0562 77.3676 55.0562 73.2405V64.886Z" fill="black"/>
<path d="M458.848 68.8716V19H465.924V49.1953L480.824 34.1724H489.737L472.733 50.6837L490.418 68.8716H481.369L465.924 52.5656V68.8716H458.848Z" fill="black"/>
<path d="M507.246 69.552C502.711 69.552 499.105 68.5542 496.428 66.5584C493.752 64.5626 492.233 61.7504 491.87 58.1217H498.402C498.719 60.1175 499.626 61.6597 501.123 62.7483C502.665 63.7915 504.752 64.3131 507.383 64.3131C509.696 64.3131 511.465 63.9049 512.689 63.0885C513.914 62.272 514.526 61.1154 514.526 59.6185C514.526 58.5299 514.164 57.6228 513.438 56.897C512.758 56.1259 511.397 55.4909 509.356 54.992L503.777 53.6993C500.284 52.8374 497.676 51.5674 495.952 49.8891C494.274 48.1655 493.435 46.0564 493.435 43.5616C493.435 40.4319 494.591 37.9826 496.905 36.2136C499.263 34.3992 502.484 33.4921 506.566 33.4921C510.603 33.4921 513.846 34.3992 516.295 36.2136C518.79 38.0279 520.196 40.568 520.514 43.8338H513.982C513.71 42.2009 512.916 40.9535 511.601 40.0917C510.331 39.1846 508.585 38.731 506.362 38.731C504.275 38.731 502.665 39.1165 501.531 39.8876C500.443 40.6133 499.898 41.6339 499.898 42.9493C499.898 44.0379 500.307 44.9451 501.123 45.6708C501.985 46.3965 503.391 47.0089 505.341 47.5078L511.057 48.9366C514.368 49.7531 516.862 51.0911 518.541 52.9508C520.219 54.7652 521.058 56.9651 521.058 59.5505C521.058 62.6802 519.833 65.1296 517.384 66.8986C514.98 68.6676 511.601 69.552 507.246 69.552Z" fill="black"/>
<path fill-rule="evenodd" clip-rule="evenodd" d="M424.433 67.2388C427.11 68.7809 430.217 69.552 433.755 69.552C437.338 69.552 440.468 68.7809 443.144 67.2388C445.82 65.6512 447.884 63.4967 449.335 60.7752C450.832 58.0083 451.58 54.8786 451.58 51.386C451.58 47.848 450.832 44.741 449.335 42.0648C447.884 39.3887 445.82 37.3022 443.144 35.8053C440.468 34.2632 437.338 33.4921 433.755 33.4921C430.217 33.4921 427.11 34.2632 424.433 35.8053C421.803 37.3022 419.716 39.3887 418.174 42.0648C416.677 44.741 415.929 47.848 415.929 51.386C415.929 54.8786 416.677 58.0083 418.174 60.7752C419.671 63.4967 421.757 65.6512 424.433 67.2388ZM439.266 62.204C437.723 63.2472 435.886 63.7688 433.755 63.7688C431.713 63.7688 429.876 63.2472 428.244 62.204C426.656 61.1607 425.409 59.7093 424.501 57.8496C423.64 55.9899 423.209 53.8127 423.209 51.3179C423.209 47.6439 424.184 44.7183 426.134 42.5411C428.13 40.3639 430.67 39.2753 433.755 39.2753C436.884 39.2753 439.424 40.3639 441.375 42.5411C443.371 44.6729 444.368 47.5985 444.368 51.3179C444.368 53.8127 443.915 55.9899 443.008 57.8496C442.101 59.7093 440.853 61.1607 439.266 62.204Z" fill="black"/>
<path fill-rule="evenodd" clip-rule="evenodd" d="M393.557 69.552C390.019 69.552 386.912 68.7809 384.235 67.2388C381.559 65.6512 379.473 63.4967 377.976 60.7752C376.479 58.0083 375.731 54.8786 375.731 51.386C375.731 47.848 376.479 44.741 377.976 42.0648C379.518 39.3887 381.605 37.3022 384.235 35.8053C386.912 34.2632 390.019 33.4921 393.557 33.4921C397.14 33.4921 400.27 34.2632 402.946 35.8053C405.622 37.3022 407.686 39.3887 409.137 42.0648C410.634 44.741 411.382 47.848 411.382 51.386C411.382 54.8786 410.634 58.0083 409.137 60.7752C407.686 63.4967 405.622 65.6512 402.946 67.2388C400.27 68.7809 397.14 69.552 393.557 69.552ZM393.557 63.7688C395.688 63.7688 397.525 63.2472 399.068 62.204C400.655 61.1607 401.903 59.7093 402.81 57.8496C403.717 55.9899 404.17 53.8127 404.17 51.3179C404.17 47.5985 403.173 44.6729 401.177 42.5411C399.226 40.3639 396.686 39.2753 393.557 39.2753C390.472 39.2753 387.932 40.3639 385.936 42.5411C383.986 44.7183 383.011 47.6439 383.011 51.3179C383.011 53.8127 383.442 55.9899 384.303 57.8496C385.211 59.7093 386.458 61.1607 388.046 62.204C389.678 63.2472 391.515 63.7688 393.557 63.7688Z" fill="black"/>
<path fill-rule="evenodd" clip-rule="evenodd" d="M335 68.8716V19.8845H355.207C359.652 19.8845 363.19 20.9731 365.821 23.1503C368.452 25.2821 369.767 28.2077 369.767 31.9271C369.767 34.2858 369.223 36.3723 368.134 38.1866C367.091 39.9556 365.64 41.339 363.78 42.3369C363.27 42.5983 362.741 42.8238 362.193 43.0134C363.034 43.2917 363.835 43.6559 364.596 44.1059C366.592 45.2398 368.18 46.8047 369.359 48.8005C370.538 50.7962 371.128 53.1095 371.128 55.7403C371.128 58.3258 370.493 60.6164 369.223 62.6121C367.998 64.6079 366.252 66.1501 363.984 67.2387C361.716 68.3273 359.085 68.8716 356.092 68.8716H335ZM354.935 63.2925H342.212V45.9429H354.527C357.384 45.9429 359.63 46.7593 361.263 48.3923C362.941 50.0252 363.78 52.2024 363.78 54.9239C363.78 57.5093 362.986 59.5504 361.399 61.0473C359.856 62.5441 357.702 63.2925 354.935 63.2925ZM342.212 25.4636H354.119C356.885 25.4636 358.972 26.0986 360.378 27.3686C361.83 28.5933 362.555 30.3849 362.555 32.7436C362.555 35.2383 361.784 37.166 360.242 38.5268C358.745 39.8422 356.613 40.4999 353.846 40.4999H342.212V25.4636Z" fill="black"/>
<path fill-rule="evenodd" clip-rule="evenodd" d="M293.184 69.552C289.692 69.552 286.607 68.7809 283.931 67.2388C281.3 65.6966 279.237 63.5647 277.74 60.8432C276.243 58.1217 275.495 54.992 275.495 51.454C275.495 47.8707 276.22 44.741 277.672 42.0648C279.169 39.3433 281.255 37.2341 283.931 35.7373C286.607 34.2405 289.669 33.4921 293.116 33.4921C296.473 33.4921 299.376 34.2178 301.825 35.6693C304.32 37.0754 306.225 39.0485 307.54 41.5886C308.901 44.1286 309.581 47.145 309.581 50.6376C309.581 51.1819 309.559 51.7035 309.513 52.2024C309.513 52.656 309.468 53.1323 309.377 53.6312H282.741C283.03 56.5526 283.925 58.9112 285.428 60.7071C287.333 62.9297 289.964 64.041 293.32 64.041C295.362 64.041 297.131 63.6328 298.627 62.8163C300.124 61.9545 301.236 60.7071 301.961 59.0742H308.629C307.495 62.34 305.567 64.9028 302.846 66.7625C300.17 68.6222 296.949 69.552 293.184 69.552ZM285.428 42.337C284.099 43.8927 283.245 45.8885 282.866 48.3243H302.543C302.276 45.6241 301.47 43.4922 300.124 41.9287C298.446 39.9783 296.11 39.0031 293.116 39.0031C289.896 39.0031 287.333 40.1144 285.428 42.337Z" fill="black"/>
<path d="M214.896 34.1724V68.8717H221.972V49.9572C221.972 47.8253 222.403 45.9883 223.264 44.4461C224.126 42.8586 225.306 41.6339 226.802 40.7721C228.345 39.8649 230.068 39.4113 231.973 39.4113C234.014 39.4113 235.579 39.9556 236.668 41.0443C237.756 42.1329 238.301 43.8565 238.301 46.2151V68.8717H245.309V49.9572C245.309 47.8253 245.74 45.9883 246.601 44.4461C247.509 42.8586 248.711 41.6339 250.207 40.7721C251.75 39.8649 253.451 39.4113 255.31 39.4113C257.351 39.4113 258.916 39.9556 260.005 41.0443C261.139 42.1329 261.706 43.8565 261.706 46.2151V68.8717H268.714V44.5822C268.714 41.2257 267.67 38.5495 265.584 36.5538C263.497 34.5126 260.708 33.4921 257.215 33.4921C254.267 33.4921 251.591 34.2405 249.187 35.7373C247.308 36.9295 245.804 38.4671 244.673 40.3499C244.157 38.8702 243.325 37.5821 242.179 36.4857C240.138 34.49 237.394 33.4921 233.946 33.4921C231.089 33.4921 228.503 34.2405 226.19 35.7373C224.26 37.0112 222.74 38.6794 221.632 40.7419V34.1724H214.896Z" fill="black"/>
<path fill-rule="evenodd" clip-rule="evenodd" d="M189.802 69.552C186.264 69.552 183.157 68.7809 180.481 67.2388C177.805 65.6512 175.718 63.4967 174.221 60.7752C172.725 58.0083 171.976 54.8786 171.976 51.386C171.976 47.848 172.725 44.741 174.221 42.0648C175.764 39.3887 177.85 37.3022 180.481 35.8053C183.157 34.2632 186.264 33.4921 189.802 33.4921C193.385 33.4921 196.515 34.2632 199.191 35.8053C201.867 37.3022 203.931 39.3887 205.383 42.0648C206.88 44.741 207.628 47.848 207.628 51.386C207.628 54.8786 206.88 58.0083 205.383 60.7752C203.931 63.4967 201.867 65.6512 199.191 67.2388C196.515 68.7809 193.385 69.552 189.802 69.552ZM189.802 63.7688C191.934 63.7688 193.771 63.2472 195.313 62.204C196.901 61.1607 198.148 59.7093 199.055 57.8496C199.962 55.9899 200.416 53.8127 200.416 51.3179C200.416 47.5985 199.418 44.6729 197.422 42.5411C195.472 40.3639 192.932 39.2753 189.802 39.2753C186.718 39.2753 184.178 40.3639 182.182 42.5411C180.232 44.7183 179.256 47.6439 179.256 51.3179C179.256 53.8127 179.687 55.9899 180.549 57.8496C181.456 59.7093 182.704 61.1607 184.291 62.204C185.924 63.2472 187.761 63.7688 189.802 63.7688Z" fill="black"/>
<path d="M125 19.8845V68.8716H132.212V46.3511H157.454V68.8716H164.666V19.8845H157.454V40.3638H132.212V19.8845H125Z" fill="black"/>
</svg>
