<svg width="582" height="93" viewBox="0 0 582 93" fill="none" xmlns="http://www.w3.org/2000/svg">
<path fill-rule="evenodd" clip-rule="evenodd" d="M65.2862 1.01877C65.3681 1.09466 65.4461 1.17334 65.5199 1.25452L103.75 42.4251C104.407 43.1328 104.772 44.0628 104.772 45.0285V77.4019C104.772 85.9896 97.7616 93 89.174 93H65.6297C60.9405 92.9999 56.7216 90.9098 53.8575 87.614C50.9934 90.9098 46.7746 92.9999 42.0854 92.9999H15.5981C7.0104 92.9999 0 85.9895 0 77.4018V42.0854C0 41.1805 0.320748 40.3049 0.905271 39.6141L33.2787 1.35461C34.0199 0.478631 35.1151 -0.0184086 36.2625 0.00052451C37.4098 0.0194574 38.4881 0.552363 39.2 1.45232C44.0092 7.53186 53.0533 8.0486 58.5686 2.53326L59.9813 1.1206C61.435 -0.333131 63.7777 -0.378101 65.2862 1.01877ZM79.0416 85.3481H89.174C93.5356 85.3481 97.1201 81.7635 97.1201 77.4019V46.5309L62.8008 9.57165L31.1962 46.4438V77.4018C31.1962 80.2998 30.3979 83.0181 29.01 85.348H42.0854C46.4471 85.348 50.0316 81.7635 50.0316 77.4018V68.5727C50.0316 59.985 57.042 52.9746 65.6297 52.9746C74.2174 52.9746 81.2278 59.985 81.2278 68.5727V77.4018C81.2278 80.2998 80.4295 83.0181 79.0416 85.3481ZM23.5443 77.4018C23.5443 81.7635 19.9598 85.348 15.5981 85.348C11.2364 85.348 7.65189 81.7635 7.65189 77.4018V43.4869L36.4339 9.4718C40.0506 12.3919 44.4646 13.9162 48.9195 14.0087L24.4654 42.5386C23.871 43.232 23.5443 44.1152 23.5443 45.0284V77.4018ZM57.6835 68.5727C57.6835 64.2111 61.268 60.6265 65.6297 60.6265C69.9914 60.6265 73.5759 64.2111 73.5759 68.5727V77.4018C73.5759 81.7635 69.9914 85.348 65.6297 85.348C61.268 85.348 57.6835 81.7635 57.6835 77.4018V68.5727Z" fill="black"/>
<path d="M581.242 72.2862C581.242 80.7882 575.002 86.0922 566.734 86.0922C564.862 86.0922 562.99 85.7022 561.196 85.0782C554.8 82.8162 551.446 77.5902 551.446 70.8042H559.558C559.87 75.2502 562.054 78.6822 566.89 78.6822C570.478 78.6822 573.13 76.4982 573.13 72.7542C573.13 63.7062 553.396 68.3862 553.396 53.0982C553.396 45.6882 559.87 40.6182 566.968 40.6182C574.378 40.6182 580.072 45.7662 580.228 53.2542H572.116C571.726 50.1342 569.854 48.0282 566.578 48.0282C563.848 48.0282 561.508 49.7442 561.508 52.6302C561.508 56.4522 565.252 57.3102 568.216 58.2462C575.314 60.4302 581.242 63.9402 581.242 72.2862Z" fill="black"/>
<path d="M523.92 62.6138L539.286 41.7878H548.88L533.202 62.1458L551.376 84.9998H541.236L523.92 62.6138ZM523.764 27.2798V84.9998H515.652V27.2798H523.764Z" fill="black"/>
<path d="M508.959 63.2382C508.959 75.5622 498.741 86.0922 485.637 86.0922C472.923 86.0922 462.315 75.8742 462.315 63.0822C462.315 50.3682 473.157 40.6182 485.637 40.6182C498.273 40.6182 508.959 50.4462 508.959 63.2382ZM500.847 63.2382C500.847 54.8142 494.061 48.0282 485.637 48.0282C477.213 48.0282 470.427 54.8922 470.427 63.3162C470.427 71.7402 477.213 78.6822 485.637 78.6822C494.139 78.6822 500.847 71.6622 500.847 63.2382Z" fill="black"/>
<path d="M458.664 63.2382C458.664 75.5622 448.446 86.0922 435.342 86.0922C422.628 86.0922 412.02 75.8742 412.02 63.0822C412.02 50.3682 422.862 40.6182 435.342 40.6182C447.978 40.6182 458.664 50.4462 458.664 63.2382ZM450.552 63.2382C450.552 54.8142 443.766 48.0282 435.342 48.0282C426.918 48.0282 420.132 54.8922 420.132 63.3162C420.132 71.7402 426.918 78.6822 435.342 78.6822C443.844 78.6822 450.552 71.6622 450.552 63.2382Z" fill="black"/>
<path d="M408.426 68.2298C408.426 70.6478 407.958 72.9878 407.022 75.1718C403.824 82.5038 396.726 84.9998 389.238 84.9998H372V27.2798H386.976C394.308 27.2798 401.016 29.7758 403.824 36.9518C404.604 38.9798 404.994 41.1638 404.994 43.2698C404.994 48.0278 403.356 51.1478 399.846 54.1898C405.306 57.3098 408.426 61.7558 408.426 68.2298ZM396.57 43.1918C396.57 37.0298 392.202 35.0018 386.82 35.0018H380.424V51.3038H387.288C392.748 51.3038 396.57 48.9638 396.57 43.1918ZM400.002 68.2298C400.002 66.2018 399.222 64.0958 397.974 62.5358C395.556 59.3378 392.28 59.0258 388.536 59.0258H380.424V77.2778H389.55C395.01 77.2778 400.002 74.1578 400.002 68.2298Z" fill="black"/>
<path d="M346.773 62.8482C346.773 64.1742 346.695 65.5782 346.539 66.9042H310.737C312.375 73.6122 317.835 78.6822 324.933 78.6822C330.003 78.6822 334.917 75.9522 337.257 71.4282H345.369C342.093 80.2422 334.059 86.0922 324.621 86.0922C312.297 86.0922 302.625 75.4062 302.625 63.3162C302.625 50.8362 312.141 40.6182 324.777 40.6182C337.023 40.6182 346.773 50.6802 346.773 62.8482ZM338.661 60.6642C338.194 53.5662 331.719 48.0282 324.699 48.0282C317.679 48.0282 311.205 53.5662 310.737 60.6642H338.661Z" fill="black"/>
<path d="M296.799 85.0002H288.687V60.9762C288.687 54.1902 286.425 48.0282 278.469 48.0282C270.045 48.0282 268.173 53.8002 268.173 60.8982V85.0002H260.061V60.9762C260.061 57.7002 260.061 54.9702 258.267 52.0842C256.395 49.1982 253.587 48.0282 250.233 48.0282C241.887 48.0282 239.547 53.6442 239.547 60.8982V85.0002H231.435V41.7882H238.923V46.4682H239.079C242.667 42.2562 245.787 40.6182 251.481 40.6182C256.551 40.6182 262.635 43.0362 264.897 47.8722C268.251 42.5682 272.853 40.6182 279.171 40.6182C290.637 40.6182 296.799 47.7942 296.799 58.9482V85.0002Z" fill="black"/>
<path d="M225.522 63.2382C225.522 75.5622 215.304 86.0922 202.2 86.0922C189.486 86.0922 178.878 75.8742 178.878 63.0822C178.878 50.3682 189.72 40.6182 202.2 40.6182C214.836 40.6182 225.522 50.4462 225.522 63.2382ZM217.41 63.2382C217.41 54.8142 210.624 48.0282 202.2 48.0282C193.776 48.0282 186.99 54.8922 186.99 63.3162C186.99 71.7402 193.776 78.6822 202.2 78.6822C210.702 78.6822 217.41 71.6622 217.41 63.2382Z" fill="black"/>
<path d="M172.488 84.9998H164.064V59.8838H140.274V84.9998H131.85V27.2798H140.274V52.1618H164.064V27.2798H172.488V84.9998Z" fill="black"/>
</svg>
